<svg width="1440" height="1381" viewBox="0 0 1440 1381" fill="none" xmlns="http://www.w3.org/2000/svg">
<g filter="url(#filter0_d_8_2)">
<path d="M378 273H391.641L475 0H436.099L378 273Z" fill="white"/>
</g>
<g filter="url(#filter1_d_8_2)">
<path d="M558.5 272.5L572.5 273.5L0 0V46.3934L558.5 272.5Z" fill="#F29100"/>
<path d="M558.5 272.5L572.5 273.5L0 0V46.3934L558.5 272.5Z" stroke="#F29100"/>
</g>
<g filter="url(#filter2_d_8_2)">
<path d="M393 407H379.018L0 588.896V708L393 407Z" fill="white"/>
</g>
<g filter="url(#filter3_d_8_2)">
<path d="M378 407.619V273H379V407L378 407.619Z" fill="white"/>
</g>
<g filter="url(#filter4_d_8_2)">
<path d="M693 273H703.891L653.5 0H623L693 273Z" fill="#E52E2A"/>
</g>
<g filter="url(#filter5_d_8_2)">
<path d="M677.5 407H663.5L0 763V808.5L677.5 407Z" fill="#E52E2A"/>
</g>
<g filter="url(#filter6_d_8_2)">
<path d="M733.5 407H719.5L1440 697.5V640L733.5 407Z" fill="#E52E2A"/>
</g>
<g filter="url(#filter7_d_8_2)">
<path d="M954.781 407H969L0.5 1201V1045L954.781 407Z" fill="#168A84"/>
</g>
<g filter="url(#filter8_d_8_2)">
<path d="M558.109 407H572.285L599.378 424.985L611.5 407H627.5L610.874 432.616L1440 983V1061L604.952 441.738L0.5 1373V1313.5L593.707 433.399L558.109 407Z" fill="#F29100"/>
</g>
<g filter="url(#filter9_d_8_2)">
<path d="M899 273H885.055L1039 0H1087L899 273Z" fill="white"/>
</g>
<g filter="url(#filter10_d_8_2)">
<path d="M927 407H940L1439.5 817V913.5L927 407Z" fill="white"/>
</g>
<g filter="url(#filter11_d_8_2)">
<path d="M954.789 273H969L861 0H750L954.789 273Z" fill="#168A84"/>
</g>
<path d="M429.6 303.6C429.6 291.333 423.267 285.2 410.6 285.2H393V348.2H410.6C423.267 348.2 429.6 342.133 429.6 330V303.6ZM378.8 272.6H411.4C421.933 272.6 429.933 275.333 435.4 280.8C441 286.267 443.8 293.6 443.8 302.8V330.6C443.8 339.933 441.067 347.333 435.6 352.8C430.133 358.133 422.067 360.8 411.4 360.8H393V407H378.8V272.6ZM845.244 302.6C845.244 289.933 838.644 283.6 825.444 283.6C812.377 283.6 805.844 289.933 805.844 302.6V377C805.844 389.8 812.377 396.2 825.444 396.2C838.644 396.2 845.244 389.8 845.244 377V302.6ZM791.644 302.4C791.644 292.933 794.51 285.267 800.244 279.4C805.977 273.533 814.377 270.6 825.444 270.6C836.644 270.6 845.11 273.533 850.844 279.4C856.577 285.267 859.444 292.933 859.444 302.4V377.4C859.444 386.867 856.577 394.533 850.844 400.4C845.11 406.133 836.644 409 825.444 409C814.244 409 805.777 406.133 800.044 400.4C794.444 394.533 791.644 386.867 791.644 377.4V302.4ZM885.05 272.6H899.25V394.6H940.05V407H885.05V272.6Z" fill="white"/>
<path d="M518.291 302.6C518.291 289.933 511.691 283.6 498.491 283.6C485.424 283.6 478.891 289.933 478.891 302.6V377C478.891 389.8 485.424 396.2 498.491 396.2C511.691 396.2 518.291 389.8 518.291 377V302.6ZM464.691 302.4C464.691 292.933 467.557 285.267 473.291 279.4C479.024 273.533 487.424 270.6 498.491 270.6C509.691 270.6 518.157 273.533 523.891 279.4C529.624 285.267 532.491 292.933 532.491 302.4V377.4C532.491 386.867 529.624 394.533 523.891 400.4C518.157 406.133 509.691 409 498.491 409C487.291 409 478.824 406.133 473.091 400.4C467.491 394.533 464.691 386.867 464.691 377.4V302.4ZM703.903 272.6V285.2H677.903V407H663.503V285.2H637.503V272.6H703.903ZM719.425 272.6H776.025V285.2H733.625V335.6H773.825V348.4H733.625V407H719.425V272.6Z" fill="#E52E2A"/>
<path d="M592.097 353H572.297V407H558.097V272.6H590.697C601.364 272.6 609.43 275.333 614.897 280.8C620.364 286.133 623.097 293.467 623.097 302.8V322.6C623.097 337 617.364 346.333 605.897 350.6L627.297 407H611.697L592.097 353ZM572.297 340.6H590.097C602.63 340.6 608.897 334.533 608.897 322.4V303.4C608.897 291.267 602.63 285.2 590.097 285.2H572.297V340.6Z" fill="#F29100"/>
<path d="M954.777 272.6H968.977V407H954.777V272.6ZM1048.17 302.6C1048.17 289.933 1041.57 283.6 1028.37 283.6C1015.31 283.6 1008.77 289.933 1008.77 302.6V377C1008.77 389.8 1015.31 396.2 1028.37 396.2C1041.57 396.2 1048.17 389.8 1048.17 377V302.6ZM994.573 302.4C994.573 292.933 997.44 285.267 1003.17 279.4C1008.91 273.533 1017.31 270.6 1028.37 270.6C1039.57 270.6 1048.04 273.533 1053.77 279.4C1059.51 285.267 1062.37 292.933 1062.37 302.4V377.4C1062.37 386.867 1059.51 394.533 1053.77 400.4C1048.04 406.133 1039.57 409 1028.37 409C1017.17 409 1008.71 406.133 1002.97 400.4C997.373 394.533 994.573 386.867 994.573 377.4V302.4Z" fill="#168A84"/>
<path d="M1062 302H1048L1362.5 0H1440L1062 302Z" fill="#168A84"/>
<path d="M509.14 844.777L500.094 837.602L491.734 844.44L496.971 854.729L493.674 857.426L475.207 820.441L479.852 816.642L512.437 842.08L509.14 844.777ZM489.983 841.066L497.089 835.255L480.104 821.784L489.983 841.066ZM514.094 819.797L509.496 823.558L519.751 836.098L516.454 838.795L490.928 807.584L498.499 801.392C500.976 799.366 503.368 798.469 505.676 798.7C507.958 798.901 509.986 800.085 511.758 802.252L515.519 806.85C518.254 810.194 518.695 813.45 516.843 816.619L532.524 825.652L528.901 828.615L514.094 819.797ZM507.141 820.678L511.274 817.298C514.185 814.917 514.488 812.318 512.183 809.501L508.575 805.088C506.27 802.271 503.663 802.052 500.752 804.432L496.619 807.813L507.141 820.678ZM524.788 779.892L527.181 782.818L521.143 787.756L544.276 816.041L540.932 818.776L517.799 790.491L511.761 795.429L509.368 792.503L524.788 779.892ZM629.343 706.164C627.064 703.377 624.454 703.187 621.512 705.593L616.821 709.429L637.599 734.835L642.29 730.998C645.231 728.592 645.537 725.965 643.208 723.117L629.343 706.164ZM611.169 709.246L619.343 702.561C621.82 700.535 624.212 699.638 626.52 699.869C628.828 700.1 630.856 701.284 632.603 703.421L646.581 720.513C648.379 722.711 649.178 724.951 648.978 727.234C648.777 729.516 647.439 731.67 644.962 733.696L636.694 740.458L611.169 709.246ZM632.758 691.589L646.274 680.536L648.667 683.462L638.449 691.818L647.527 702.919L656.445 695.626L658.838 698.552L649.92 705.845L659.189 717.178L669.407 708.821L671.8 711.747L658.284 722.801L632.758 691.589ZM654.48 684.366C652.809 682.322 652.186 680.171 652.611 677.911C653.012 675.62 654.435 673.474 656.881 671.474C659.358 669.448 661.663 668.002 663.797 667.135L666.38 670.294C664.288 671.022 662.082 672.336 659.759 674.235C656.57 676.843 655.963 679.355 657.938 681.77L659.762 684C660.648 685.083 661.545 685.77 662.454 686.06C663.394 686.325 664.588 686.331 666.034 686.078L673.891 684.691C677.513 684.002 680.451 685.035 682.705 687.791L684.756 690.299C686.504 692.436 687.131 694.687 686.638 697.054C686.145 699.421 684.52 701.731 681.765 703.985C679.04 706.213 676.619 707.676 674.503 708.374L671.92 705.216C674.304 704.403 676.657 703.047 678.979 701.147C682.633 698.159 683.409 695.38 681.307 692.81L679.711 690.86C678.876 689.838 678.031 689.185 677.179 688.9C676.326 688.616 675.205 688.603 673.814 688.862L666.08 690.304C662.196 691.052 659.076 689.986 656.721 687.106L654.48 684.366ZM669.225 661.765L672.523 659.068L698.049 690.28L694.751 692.977L669.225 661.765ZM683.899 660.849C682.152 658.712 681.481 656.47 681.887 654.123C682.298 651.72 683.974 649.315 686.916 646.91C688.898 645.289 690.986 644.02 693.182 643.103L695.765 646.261C693.457 647.167 691.343 648.405 689.423 649.975C687.503 651.545 686.404 653.013 686.125 654.377C685.852 655.686 686.26 657.006 687.348 658.338L701.973 676.219C704.024 678.727 706.536 678.766 709.508 676.335C711.459 674.739 712.586 673.275 712.89 671.941L703.394 660.329L706.692 657.632L717.897 671.334C716.712 674.37 714.819 676.952 712.218 679.079C706.861 683.46 702.385 683.452 698.789 679.055L683.899 660.849ZM734.786 651.398L726.067 641.399L713.266 625.747L716.563 623.05L742.089 654.262L738.281 657.376L718.653 646.455C717.873 646.008 714.004 643.772 707.045 639.749L715.68 649.739L728.481 665.391L725.276 668.012L699.75 636.801L703.559 633.686C718.712 642.169 729.122 648.073 734.786 651.398Z" fill="white"/>
<path d="M528.393 776.944L531.69 774.247L557.216 805.458L553.918 808.155L528.393 776.944ZM541.361 776.879C539.689 774.836 539.066 772.684 539.492 770.424C539.892 768.133 541.315 765.988 543.761 763.987C546.238 761.961 548.544 760.515 550.677 759.649L553.26 762.807C551.169 763.536 548.962 764.849 546.64 766.749C543.451 769.357 542.844 771.869 544.819 774.284L546.642 776.513C547.528 777.597 548.426 778.284 549.335 778.574C550.275 778.839 551.468 778.845 552.915 778.592L560.771 777.204C564.394 776.515 567.332 777.549 569.586 780.305L571.637 782.813C573.384 784.949 574.011 787.201 573.518 789.568C573.025 791.934 571.401 794.245 568.645 796.499C565.92 798.727 563.5 800.19 561.383 800.887L558.8 797.729C561.184 796.916 563.537 795.56 565.859 793.661C569.513 790.673 570.289 787.894 568.187 785.324L566.592 783.373C565.756 782.351 564.912 781.698 564.059 781.414C563.207 781.129 562.085 781.117 560.695 781.375L552.96 782.817C549.076 783.565 545.957 782.499 543.602 779.62L541.361 776.879ZM568.739 743.947L571.132 746.873L565.094 751.811L588.227 780.096L584.883 782.831L561.75 754.546L555.712 759.484L553.319 756.558L568.739 743.947Z" fill="#F29100"/>
<path d="M609.672 733.336L612.065 736.262L610.114 737.857L616.382 745.521C618.18 747.719 618.955 750.057 618.707 752.533C618.433 754.979 616.996 757.265 614.395 759.393C611.794 761.52 609.224 762.484 606.686 762.287C604.178 762.064 602.038 760.869 600.265 758.701L597.531 755.357C595.074 752.354 594.699 749.431 596.405 746.589C593.312 747.672 590.524 746.696 588.043 743.662L585.954 741.107C584.206 738.971 583.538 736.701 583.95 734.297C584.367 731.838 586.062 729.392 589.034 726.961C591.202 725.189 593.38 723.872 595.57 723.011L598.191 726.216C595.888 727.065 593.7 728.338 591.625 730.035C589.551 731.732 588.402 733.265 588.18 734.636C587.932 735.976 588.34 737.296 589.403 738.596L591.302 740.918C593.733 743.891 596.327 744.25 599.083 741.996L604.517 737.552L602.314 734.858L605.518 732.237L607.721 734.931L609.672 733.336ZM613.139 748.095L606.91 740.478L601.522 744.884C598.704 747.189 598.498 749.812 600.904 752.753L603.525 755.958C604.639 757.321 605.928 758.075 607.392 758.222C608.855 758.368 610.392 757.783 612.002 756.466C613.612 755.15 614.475 753.772 614.591 752.334C614.737 750.871 614.253 749.458 613.139 748.095Z" fill="#168A84"/>
<path d="M722.973 617.808L736.488 606.755L738.881 609.681L728.663 618.038L737.742 629.138L746.659 621.845L749.052 624.771L740.135 632.064L749.403 643.397L759.621 635.04L762.014 637.966L748.499 649.02L722.973 617.808ZM764.599 614.925L760 618.685L770.256 631.225L766.959 633.922L741.433 602.711L749.004 596.52C751.481 594.494 753.873 593.596 756.181 593.828C758.463 594.028 760.491 595.212 762.263 597.379L766.024 601.977C768.759 605.321 769.2 608.578 767.347 611.746L783.029 620.779L779.406 623.742L764.599 614.925ZM757.645 615.805L761.779 612.425C764.69 610.044 764.993 607.445 762.688 604.628L759.08 600.215C756.775 597.398 754.168 597.179 751.257 599.56L747.124 602.94L757.645 615.805Z" fill="#E52E2A"/>
<path d="M54.2 316.68H58.28L51.62 357H46.52C43.88 341.48 42.4 332.6 42.08 330.36C41.8 328.08 41.54 325.74 41.3 323.34C40.9 327.7 40.3 332.2 39.5 336.84L36.08 357H30.86L24.26 316.68H28.34L32.3 340.74L33.74 351.42C34.18 347.82 34.68 344.24 35.24 340.68L39.08 316.68H43.46L47.3 340.74L48.8 351.3C49.32 347.1 49.8 343.58 50.24 340.74L54.2 316.68ZM63.1025 348.3V331.62C63.1025 328.78 63.9025 326.52 65.5025 324.84C67.1425 323.12 69.6025 322.26 72.8825 322.26C76.1625 322.26 78.5825 323.12 80.1425 324.84C81.7425 326.52 82.5425 328.78 82.5425 331.62V342.06H67.3025V348.12C67.3025 349.92 67.8625 351.26 68.9825 352.14C70.1025 353.02 71.8425 353.46 74.2025 353.46C76.5625 353.46 79.0025 353.1 81.5225 352.38V356.34C79.5225 356.98 77.1425 357.3 74.3825 357.3C66.8625 357.3 63.1025 354.3 63.1025 348.3ZM67.3025 338.52H78.4625V331.62C78.4625 327.86 76.6025 325.98 72.8825 325.98C69.1625 325.98 67.3025 327.86 67.3025 331.62V338.52ZM89.8353 313.8H94.0953V357H89.8353V313.8ZM101.774 331.2C101.774 325.44 105.134 322.56 111.854 322.56C114.334 322.56 116.454 322.84 118.214 323.4V327.3C116.294 326.78 114.214 326.52 111.974 326.52C109.734 326.52 108.174 326.92 107.294 327.72C106.454 328.48 106.034 329.68 106.034 331.32V348.6C106.034 350.28 106.454 351.5 107.294 352.26C108.174 353.02 109.774 353.4 112.094 353.4C114.414 353.4 116.494 353.08 118.334 352.44V356.46C116.174 357.02 114.014 357.3 111.854 357.3C105.134 357.3 101.774 354.46 101.774 348.78V331.2ZM139.221 331.62C139.221 327.9 137.381 326.04 133.701 326.04C130.021 326.04 128.181 327.9 128.181 331.62V348.24C128.181 352 130.021 353.88 133.701 353.88C137.381 353.88 139.221 352 139.221 348.24V331.62ZM123.981 331.56C123.981 328.72 124.781 326.46 126.381 324.78C127.981 323.1 130.421 322.26 133.701 322.26C136.981 322.26 139.421 323.1 141.021 324.78C142.621 326.46 143.421 328.72 143.421 331.56V348.3C143.421 351.14 142.621 353.4 141.021 355.08C139.421 356.76 136.981 357.6 133.701 357.6C130.421 357.6 127.981 356.76 126.381 355.08C124.781 353.4 123.981 351.14 123.981 348.3V331.56ZM168.464 325.2C171.224 323.56 173.964 322.74 176.684 322.74C179.404 322.74 181.484 323.44 182.924 324.84C184.364 326.2 185.084 328.14 185.084 330.66V357H180.764V331.08C180.764 328.16 179.304 326.7 176.384 326.7C174.224 326.7 172.064 327.36 169.904 328.68C170.104 329.28 170.204 330.08 170.204 331.08V357H165.944V331.08C165.944 328.16 164.464 326.7 161.504 326.7C159.624 326.7 157.584 327.22 155.384 328.26V357H151.124V322.86H155.204V324.42C157.884 323.3 160.224 322.74 162.224 322.74C164.944 322.74 167.024 323.56 168.464 325.2ZM192.478 348.3V331.62C192.478 328.78 193.278 326.52 194.878 324.84C196.518 323.12 198.978 322.26 202.258 322.26C205.538 322.26 207.958 323.12 209.518 324.84C211.118 326.52 211.918 328.78 211.918 331.62V342.06H196.678V348.12C196.678 349.92 197.238 351.26 198.358 352.14C199.478 353.02 201.218 353.46 203.578 353.46C205.938 353.46 208.378 353.1 210.898 352.38V356.34C208.898 356.98 206.518 357.3 203.758 357.3C196.238 357.3 192.478 354.3 192.478 348.3ZM196.678 338.52H207.838V331.62C207.838 327.86 205.978 325.98 202.258 325.98C198.538 325.98 196.678 327.86 196.678 331.62V338.52ZM234.778 316.68V322.86H242.398V326.64H234.778V349.44C234.778 350.84 235.118 351.86 235.798 352.5C236.478 353.1 237.518 353.4 238.918 353.4C240.318 353.4 241.678 353.18 242.998 352.74V356.64C241.398 357.04 239.898 357.24 238.498 357.24C233.138 357.24 230.458 354.7 230.458 349.62V326.64H226.738V322.86H230.638L231.838 316.68H234.778ZM262.678 331.62C262.678 327.9 260.838 326.04 257.158 326.04C253.478 326.04 251.638 327.9 251.638 331.62V348.24C251.638 352 253.478 353.88 257.158 353.88C260.838 353.88 262.678 352 262.678 348.24V331.62ZM247.438 331.56C247.438 328.72 248.238 326.46 249.838 324.78C251.438 323.1 253.878 322.26 257.158 322.26C260.438 322.26 262.878 323.1 264.478 324.78C266.078 326.46 266.878 328.72 266.878 331.56V348.3C266.878 351.14 266.078 353.4 264.478 355.08C262.878 356.76 260.438 357.6 257.158 357.6C253.878 357.6 251.438 356.76 249.838 355.08C248.238 353.4 247.438 351.14 247.438 348.3V331.56ZM303.289 325.2C306.049 323.56 308.789 322.74 311.509 322.74C314.229 322.74 316.309 323.44 317.749 324.84C319.189 326.2 319.909 328.14 319.909 330.66V357H315.589V331.08C315.589 328.16 314.129 326.7 311.209 326.7C309.049 326.7 306.889 327.36 304.729 328.68C304.929 329.28 305.029 330.08 305.029 331.08V357H300.769V331.08C300.769 328.16 299.289 326.7 296.329 326.7C294.449 326.7 292.409 327.22 290.209 328.26V357H285.949V322.86H290.029V324.42C292.709 323.3 295.049 322.74 297.049 322.74C299.769 322.74 301.849 323.56 303.289 325.2ZM341.702 322.86H345.962L336.602 365.94H332.522L334.382 357H332.282L324.842 322.86H329.162L332.762 339.84L335.402 354C336.202 349.28 337.082 344.56 338.042 339.84L341.702 322.86Z" fill="#168A84"/>
<defs>
<filter id="filter0_d_8_2" x="374" y="0" width="105" height="281" filterUnits="userSpaceOnUse" color-interpolation-filters="sRGB">
<feFlood flood-opacity="0" result="BackgroundImageFix"/>
<feColorMatrix in="SourceAlpha" type="matrix" values="0 0 0 0 0 0 0 0 0 0 0 0 0 0 0 0 0 0 127 0" result="hardAlpha"/>
<feOffset dy="4"/>
<feGaussianBlur stdDeviation="2"/>
<feComposite in2="hardAlpha" operator="out"/>
<feColorMatrix type="matrix" values="0 0 0 0 0 0 0 0 0 0 0 0 0 0 0 0 0 0 0.25 0"/>
<feBlend mode="normal" in2="BackgroundImageFix" result="effect1_dropShadow_8_2"/>
<feBlend mode="normal" in="SourceGraphic" in2="effect1_dropShadow_8_2" result="shape"/>
</filter>
<filter id="filter1_d_8_2" x="-4.5" y="-0.792969" width="581.216" height="282.792" filterUnits="userSpaceOnUse" color-interpolation-filters="sRGB">
<feFlood flood-opacity="0" result="BackgroundImageFix"/>
<feColorMatrix in="SourceAlpha" type="matrix" values="0 0 0 0 0 0 0 0 0 0 0 0 0 0 0 0 0 0 127 0" result="hardAlpha"/>
<feOffset dy="4"/>
<feGaussianBlur stdDeviation="2"/>
<feComposite in2="hardAlpha" operator="out"/>
<feColorMatrix type="matrix" values="0 0 0 0 0 0 0 0 0 0 0 0 0 0 0 0 0 0 0.25 0"/>
<feBlend mode="normal" in2="BackgroundImageFix" result="effect1_dropShadow_8_2"/>
<feBlend mode="normal" in="SourceGraphic" in2="effect1_dropShadow_8_2" result="shape"/>
</filter>
<filter id="filter2_d_8_2" x="-4" y="407" width="401" height="309" filterUnits="userSpaceOnUse" color-interpolation-filters="sRGB">
<feFlood flood-opacity="0" result="BackgroundImageFix"/>
<feColorMatrix in="SourceAlpha" type="matrix" values="0 0 0 0 0 0 0 0 0 0 0 0 0 0 0 0 0 0 127 0" result="hardAlpha"/>
<feOffset dy="4"/>
<feGaussianBlur stdDeviation="2"/>
<feComposite in2="hardAlpha" operator="out"/>
<feColorMatrix type="matrix" values="0 0 0 0 0 0 0 0 0 0 0 0 0 0 0 0 0 0 0.25 0"/>
<feBlend mode="normal" in2="BackgroundImageFix" result="effect1_dropShadow_8_2"/>
<feBlend mode="normal" in="SourceGraphic" in2="effect1_dropShadow_8_2" result="shape"/>
</filter>
<filter id="filter3_d_8_2" x="374" y="273" width="9" height="142.619" filterUnits="userSpaceOnUse" color-interpolation-filters="sRGB">
<feFlood flood-opacity="0" result="BackgroundImageFix"/>
<feColorMatrix in="SourceAlpha" type="matrix" values="0 0 0 0 0 0 0 0 0 0 0 0 0 0 0 0 0 0 127 0" result="hardAlpha"/>
<feOffset dy="4"/>
<feGaussianBlur stdDeviation="2"/>
<feComposite in2="hardAlpha" operator="out"/>
<feColorMatrix type="matrix" values="0 0 0 0 0 0 0 0 0 0 0 0 0 0 0 0 0 0 0.25 0"/>
<feBlend mode="normal" in2="BackgroundImageFix" result="effect1_dropShadow_8_2"/>
<feBlend mode="normal" in="SourceGraphic" in2="effect1_dropShadow_8_2" result="shape"/>
</filter>
<filter id="filter4_d_8_2" x="619" y="0" width="88.8906" height="281" filterUnits="userSpaceOnUse" color-interpolation-filters="sRGB">
<feFlood flood-opacity="0" result="BackgroundImageFix"/>
<feColorMatrix in="SourceAlpha" type="matrix" values="0 0 0 0 0 0 0 0 0 0 0 0 0 0 0 0 0 0 127 0" result="hardAlpha"/>
<feOffset dy="4"/>
<feGaussianBlur stdDeviation="2"/>
<feComposite in2="hardAlpha" operator="out"/>
<feColorMatrix type="matrix" values="0 0 0 0 0 0 0 0 0 0 0 0 0 0 0 0 0 0 0.25 0"/>
<feBlend mode="normal" in2="BackgroundImageFix" result="effect1_dropShadow_8_2"/>
<feBlend mode="normal" in="SourceGraphic" in2="effect1_dropShadow_8_2" result="shape"/>
</filter>
<filter id="filter5_d_8_2" x="-4" y="407" width="685.5" height="409.5" filterUnits="userSpaceOnUse" color-interpolation-filters="sRGB">
<feFlood flood-opacity="0" result="BackgroundImageFix"/>
<feColorMatrix in="SourceAlpha" type="matrix" values="0 0 0 0 0 0 0 0 0 0 0 0 0 0 0 0 0 0 127 0" result="hardAlpha"/>
<feOffset dy="4"/>
<feGaussianBlur stdDeviation="2"/>
<feComposite in2="hardAlpha" operator="out"/>
<feColorMatrix type="matrix" values="0 0 0 0 0 0 0 0 0 0 0 0 0 0 0 0 0 0 0.25 0"/>
<feBlend mode="normal" in2="BackgroundImageFix" result="effect1_dropShadow_8_2"/>
<feBlend mode="normal" in="SourceGraphic" in2="effect1_dropShadow_8_2" result="shape"/>
</filter>
<filter id="filter6_d_8_2" x="715.5" y="407" width="728.5" height="298.5" filterUnits="userSpaceOnUse" color-interpolation-filters="sRGB">
<feFlood flood-opacity="0" result="BackgroundImageFix"/>
<feColorMatrix in="SourceAlpha" type="matrix" values="0 0 0 0 0 0 0 0 0 0 0 0 0 0 0 0 0 0 127 0" result="hardAlpha"/>
<feOffset dy="4"/>
<feGaussianBlur stdDeviation="2"/>
<feComposite in2="hardAlpha" operator="out"/>
<feColorMatrix type="matrix" values="0 0 0 0 0 0 0 0 0 0 0 0 0 0 0 0 0 0 0.25 0"/>
<feBlend mode="normal" in2="BackgroundImageFix" result="effect1_dropShadow_8_2"/>
<feBlend mode="normal" in="SourceGraphic" in2="effect1_dropShadow_8_2" result="shape"/>
</filter>
<filter id="filter7_d_8_2" x="-3.5" y="407" width="976.5" height="802" filterUnits="userSpaceOnUse" color-interpolation-filters="sRGB">
<feFlood flood-opacity="0" result="BackgroundImageFix"/>
<feColorMatrix in="SourceAlpha" type="matrix" values="0 0 0 0 0 0 0 0 0 0 0 0 0 0 0 0 0 0 127 0" result="hardAlpha"/>
<feOffset dy="4"/>
<feGaussianBlur stdDeviation="2"/>
<feComposite in2="hardAlpha" operator="out"/>
<feColorMatrix type="matrix" values="0 0 0 0 0 0 0 0 0 0 0 0 0 0 0 0 0 0 0.25 0"/>
<feBlend mode="normal" in2="BackgroundImageFix" result="effect1_dropShadow_8_2"/>
<feBlend mode="normal" in="SourceGraphic" in2="effect1_dropShadow_8_2" result="shape"/>
</filter>
<filter id="filter8_d_8_2" x="-3.5" y="407" width="1447.5" height="974" filterUnits="userSpaceOnUse" color-interpolation-filters="sRGB">
<feFlood flood-opacity="0" result="BackgroundImageFix"/>
<feColorMatrix in="SourceAlpha" type="matrix" values="0 0 0 0 0 0 0 0 0 0 0 0 0 0 0 0 0 0 127 0" result="hardAlpha"/>
<feOffset dy="4"/>
<feGaussianBlur stdDeviation="2"/>
<feComposite in2="hardAlpha" operator="out"/>
<feColorMatrix type="matrix" values="0 0 0 0 0 0 0 0 0 0 0 0 0 0 0 0 0 0 0.25 0"/>
<feBlend mode="normal" in2="BackgroundImageFix" result="effect1_dropShadow_8_2"/>
<feBlend mode="normal" in="SourceGraphic" in2="effect1_dropShadow_8_2" result="shape"/>
</filter>
<filter id="filter9_d_8_2" x="881.055" y="0" width="209.945" height="281" filterUnits="userSpaceOnUse" color-interpolation-filters="sRGB">
<feFlood flood-opacity="0" result="BackgroundImageFix"/>
<feColorMatrix in="SourceAlpha" type="matrix" values="0 0 0 0 0 0 0 0 0 0 0 0 0 0 0 0 0 0 127 0" result="hardAlpha"/>
<feOffset dy="4"/>
<feGaussianBlur stdDeviation="2"/>
<feComposite in2="hardAlpha" operator="out"/>
<feColorMatrix type="matrix" values="0 0 0 0 0 0 0 0 0 0 0 0 0 0 0 0 0 0 0.25 0"/>
<feBlend mode="normal" in2="BackgroundImageFix" result="effect1_dropShadow_8_2"/>
<feBlend mode="normal" in="SourceGraphic" in2="effect1_dropShadow_8_2" result="shape"/>
</filter>
<filter id="filter10_d_8_2" x="923" y="407" width="520.5" height="514.5" filterUnits="userSpaceOnUse" color-interpolation-filters="sRGB">
<feFlood flood-opacity="0" result="BackgroundImageFix"/>
<feColorMatrix in="SourceAlpha" type="matrix" values="0 0 0 0 0 0 0 0 0 0 0 0 0 0 0 0 0 0 127 0" result="hardAlpha"/>
<feOffset dy="4"/>
<feGaussianBlur stdDeviation="2"/>
<feComposite in2="hardAlpha" operator="out"/>
<feColorMatrix type="matrix" values="0 0 0 0 0 0 0 0 0 0 0 0 0 0 0 0 0 0 0.25 0"/>
<feBlend mode="normal" in2="BackgroundImageFix" result="effect1_dropShadow_8_2"/>
<feBlend mode="normal" in="SourceGraphic" in2="effect1_dropShadow_8_2" result="shape"/>
</filter>
<filter id="filter11_d_8_2" x="746" y="0" width="227" height="281" filterUnits="userSpaceOnUse" color-interpolation-filters="sRGB">
<feFlood flood-opacity="0" result="BackgroundImageFix"/>
<feColorMatrix in="SourceAlpha" type="matrix" values="0 0 0 0 0 0 0 0 0 0 0 0 0 0 0 0 0 0 127 0" result="hardAlpha"/>
<feOffset dy="4"/>
<feGaussianBlur stdDeviation="2"/>
<feComposite in2="hardAlpha" operator="out"/>
<feColorMatrix type="matrix" values="0 0 0 0 0 0 0 0 0 0 0 0 0 0 0 0 0 0 0.25 0"/>
<feBlend mode="normal" in2="BackgroundImageFix" result="effect1_dropShadow_8_2"/>
<feBlend mode="normal" in="SourceGraphic" in2="effect1_dropShadow_8_2" result="shape"/>
</filter>
</defs>
</svg>
